<svg width="22" height="22" viewBox="0 0 22 22" fill="none" xmlns="http://www.w3.org/2000/svg">
<path fill-rule="evenodd" clip-rule="evenodd" d="M13.0349 2.03474C13.6676 1.402 14.5609 1.14587 15.5835 1.14587H17.4168C18.4395 1.14587 19.3327 1.402 19.9655 2.03474C20.5982 2.66748 20.8543 3.56073 20.8543 4.58337V6.41671C20.8543 7.43935 20.5982 8.33261 19.9655 8.96534C19.3327 9.59808 18.4395 9.85421 17.4168 9.85421H15.5835C14.5609 9.85421 13.6676 9.59808 13.0349 8.96534C12.4021 8.33261 12.146 7.43935 12.146 6.41671V4.58337C12.146 3.56073 12.4021 2.66748 13.0349 2.03474ZM14.0071 3.00701C13.7232 3.29094 13.521 3.77268 13.521 4.58337V6.41671C13.521 7.2274 13.7232 7.70914 14.0071 7.99307C14.2911 8.277 14.7728 8.47921 15.5835 8.47921H17.4168C18.2275 8.47921 18.7093 8.277 18.9932 7.99307C19.2771 7.70914 19.4793 7.2274 19.4793 6.41671V4.58337C19.4793 3.77268 19.2771 3.29094 18.9932 3.00701C18.7093 2.72308 18.2275 2.52087 17.4168 2.52087H15.5835C14.7728 2.52087 14.2911 2.72308 14.0071 3.00701Z" fill="#F1F1F1"/>
<path fill-rule="evenodd" clip-rule="evenodd" d="M2.03486 13.0347C2.6676 12.402 3.56085 12.1459 4.5835 12.1459H6.41683C7.43947 12.1459 8.33273 12.402 8.96547 13.0347C9.5982 13.6675 9.85433 14.5607 9.85433 15.5834V17.4167C9.85433 18.4393 9.5982 19.3326 8.96547 19.9653C8.33273 20.5981 7.43947 20.8542 6.41683 20.8542H4.5835C3.56085 20.8542 2.6676 20.5981 2.03486 19.9653C1.40212 19.3326 1.146 18.4393 1.146 17.4167V15.5834C1.146 14.5607 1.40212 13.6675 2.03486 13.0347ZM3.00713 14.007C2.7232 14.2909 2.521 14.7727 2.521 15.5834V17.4167C2.521 18.2274 2.7232 18.7091 3.00713 18.9931C3.29106 19.277 3.7728 19.4792 4.5835 19.4792H6.41683C7.22752 19.4792 7.70926 19.277 7.99319 18.9931C8.27712 18.7091 8.47933 18.2274 8.47933 17.4167V15.5834C8.47933 14.7727 8.27712 14.2909 7.99319 14.007C7.70926 13.7231 7.22752 13.5209 6.41683 13.5209H4.5835C3.7728 13.5209 3.29106 13.7231 3.00713 14.007Z" fill="#F1F1F1"/>
<path fill-rule="evenodd" clip-rule="evenodd" d="M5.50016 2.52087C3.85481 2.52087 2.521 3.85469 2.521 5.50004C2.521 7.14539 3.85481 8.47921 5.50016 8.47921C7.14551 8.47921 8.47933 7.14539 8.47933 5.50004C8.47933 3.85469 7.14551 2.52087 5.50016 2.52087ZM1.146 5.50004C1.146 3.0953 3.09542 1.14587 5.50016 1.14587C7.9049 1.14587 9.85433 3.0953 9.85433 5.50004C9.85433 7.90478 7.9049 9.85421 5.50016 9.85421C3.09542 9.85421 1.146 7.90478 1.146 5.50004Z" fill="#F1F1F1"/>
<path fill-rule="evenodd" clip-rule="evenodd" d="M16.5002 13.5209C14.8548 13.5209 13.521 14.8547 13.521 16.5C13.521 18.1454 14.8548 19.4792 16.5002 19.4792C18.1455 19.4792 19.4793 18.1454 19.4793 16.5C19.4793 14.8547 18.1455 13.5209 16.5002 13.5209ZM12.146 16.5C12.146 14.0953 14.0954 12.1459 16.5002 12.1459C18.9049 12.1459 20.8543 14.0953 20.8543 16.5C20.8543 18.9048 18.9049 20.8542 16.5002 20.8542C14.0954 20.8542 12.146 18.9048 12.146 16.5Z" fill="#F1F1F1"/>
</svg>
