<svg width="46" height="46" viewBox="0 0 46 46" fill="none" xmlns="http://www.w3.org/2000/svg">
<rect width="46" height="46" rx="23" fill="#70A1E6"/>
<path fill-rule="evenodd" clip-rule="evenodd" d="M22.9999 14.5208C18.3196 14.5208 14.5208 18.3197 14.5208 23C14.5208 27.6803 18.3196 31.4792 22.9999 31.4792C27.6802 31.4792 31.4791 27.6803 31.4791 23C31.4791 18.3197 27.6802 14.5208 22.9999 14.5208ZM13.1458 23C13.1458 17.5603 17.5602 13.1458 22.9999 13.1458C28.4396 13.1458 32.8541 17.5603 32.8541 23C32.8541 28.4397 28.4396 32.8542 22.9999 32.8542C17.5602 32.8542 13.1458 28.4397 13.1458 23Z" fill="#F1F1F1"/>
<path fill-rule="evenodd" clip-rule="evenodd" d="M22.6606 18.1967C23.0403 18.1967 23.3481 18.5045 23.3481 18.8842V22.6425C23.3481 22.7832 23.4019 22.9872 23.5214 23.1968C23.6409 23.4064 23.7891 23.5564 23.9095 23.6277L23.9113 23.6288L23.9113 23.6288L26.753 25.3246C27.079 25.5192 27.1856 25.9413 26.991 26.2673C26.7964 26.5934 26.3744 26.6999 26.0483 26.5054L23.2085 24.8106C23.2082 24.8104 23.2079 24.8102 23.2075 24.81C22.8334 24.588 22.5327 24.2387 22.327 23.878C22.1211 23.5169 21.9731 23.0792 21.9731 22.6425V18.8842C21.9731 18.5045 22.2809 18.1967 22.6606 18.1967Z" fill="#F1F1F1"/>
</svg>
