<svg width="22" height="22" viewBox="0 0 22 22" fill="none" xmlns="http://www.w3.org/2000/svg">
<path fill-rule="evenodd" clip-rule="evenodd" d="M16.4172 2.52087C15.4861 2.52087 14.7397 3.26724 14.7397 4.19838C14.7397 5.0948 15.4292 5.81727 16.302 5.87388C16.3752 5.86738 16.4501 5.86738 16.5234 5.87388C17.3946 5.81732 18.0871 5.09579 18.0947 4.19592C18.0934 3.27333 17.3458 2.52087 16.4172 2.52087ZM13.3647 4.19838C13.3647 2.50785 14.7267 1.14587 16.4172 1.14587C18.1095 1.14587 19.4697 2.51875 19.4697 4.19838V4.20329H19.4697C19.4579 5.8523 18.1599 7.19118 16.5246 7.25043C16.4872 7.25178 16.4498 7.25008 16.4127 7.24534C16.3756 7.25008 16.3381 7.25178 16.3007 7.25043C14.6663 7.19121 13.3647 5.85207 13.3647 4.19838Z" fill="#F1F1F1"/>
<path fill-rule="evenodd" clip-rule="evenodd" d="M15.4093 8.11368C16.8029 7.86954 18.392 8.1023 19.5472 8.86885L19.5485 8.86967C20.3381 9.39607 20.824 10.1588 20.824 11.0092C20.824 11.8596 20.3381 12.6223 19.5485 13.1487C18.4018 13.9162 16.8317 14.1481 15.4416 13.9147C15.0672 13.8519 14.8146 13.4973 14.8774 13.1229C14.9403 12.7484 15.2948 12.4958 15.6693 12.5587C16.7903 12.7469 17.988 12.539 18.7845 12.0055L18.7858 12.0047C19.2887 11.6694 19.449 11.2955 19.449 11.0092C19.449 10.723 19.2888 10.3493 18.7864 10.0142C17.98 9.47934 16.7643 9.27224 15.6466 9.46805C15.2726 9.53357 14.9163 9.2835 14.8508 8.9095C14.7852 8.5355 15.0353 8.1792 15.4093 8.11368Z" fill="#F1F1F1"/>
<path fill-rule="evenodd" clip-rule="evenodd" d="M2.50244 4.19838C2.50244 2.51875 3.86268 1.14587 5.55494 1.14587C7.24547 1.14587 8.60744 2.50785 8.60744 4.19838C8.60744 5.85207 7.30591 7.19121 5.6715 7.25043C5.63409 7.25178 5.59664 7.25008 5.55953 7.24534C5.52242 7.25008 5.48497 7.25178 5.44755 7.25043C3.81228 7.19118 2.51424 5.8523 2.50246 4.20329L2.50244 4.19838ZM3.87744 4.19593C3.88512 5.09579 4.57757 5.81732 5.44884 5.87388C5.52204 5.86738 5.59702 5.86738 5.67022 5.87388C6.54299 5.81727 7.23244 5.0948 7.23244 4.19838C7.23244 3.26724 6.48608 2.52087 5.55494 2.52087C4.62636 2.52087 3.87876 3.27334 3.87744 4.19593Z" fill="#F1F1F1"/>
<path fill-rule="evenodd" clip-rule="evenodd" d="M3.18556 10.0142C3.992 9.47934 5.2076 9.27224 6.32536 9.46805C6.69936 9.53357 7.05566 9.2835 7.12118 8.9095C7.18669 8.5355 6.93662 8.1792 6.56262 8.11368C5.169 7.86954 3.57993 8.1023 2.4247 8.86885L2.4247 8.86885L2.42347 8.86967C1.63386 9.39607 1.14795 10.1588 1.14795 11.0092C1.14795 11.8593 1.63361 12.6219 2.42285 13.1483C3.56956 13.9161 5.13995 14.1481 6.53032 13.9147C6.90477 13.8519 7.15737 13.4973 7.0945 13.1229C7.03164 12.7484 6.67712 12.4958 6.30266 12.5587C5.18161 12.7469 3.98398 12.539 3.18742 12.0055L3.18618 12.0047C2.68328 11.6694 2.52295 11.2955 2.52295 11.0092C2.52295 10.723 2.68315 10.3493 3.18556 10.0142Z" fill="#F1F1F1"/>
<path fill-rule="evenodd" clip-rule="evenodd" d="M10.9172 9.36841C9.98611 9.36841 9.23975 10.1148 9.23975 11.0459C9.23975 11.9423 9.9292 12.6648 10.802 12.7214C10.8762 12.7148 10.9523 12.7149 11.0264 12.7217C11.8906 12.6721 12.587 11.9482 12.5947 11.0435C12.5934 10.1209 11.8458 9.36841 10.9172 9.36841ZM7.86475 11.0459C7.86475 9.35538 9.22671 7.99341 10.9172 7.99341C12.6095 7.99341 13.9697 9.36628 13.9697 11.0459V11.0508H13.9697C13.958 12.6954 12.6633 14.0505 11.0197 14.0981C10.9839 14.0992 10.9481 14.0974 10.9127 14.0929C10.8756 14.0976 10.8381 14.0993 10.8007 14.098C9.16627 14.0387 7.86475 12.6996 7.86475 11.0459Z" fill="#F1F1F1"/>
<path fill-rule="evenodd" clip-rule="evenodd" d="M11.0031 14.8822C12.0742 14.8822 13.1823 15.1489 14.0485 15.7264C14.8381 16.2528 15.324 17.0156 15.324 17.866C15.324 18.7162 14.8383 19.4789 14.0488 20.0053C13.179 20.5868 12.0713 20.8566 10.9997 20.8566C9.92809 20.8566 8.82039 20.5868 7.95051 20.0053C7.16109 19.4789 6.67529 18.7162 6.67529 17.866C6.67529 17.0156 7.16121 16.2528 7.95081 15.7264L7.95246 15.7253L7.95247 15.7253C8.82236 15.149 9.93178 14.8822 11.0031 14.8822ZM8.71271 16.871C8.21045 17.2062 8.05029 17.5798 8.05029 17.866C8.05029 18.1523 8.21063 18.5262 8.71352 18.8614L8.71435 18.862C9.31105 19.261 10.1373 19.4816 10.9997 19.4816C11.862 19.4816 12.6883 19.261 13.285 18.862L13.2858 18.8614C13.7887 18.5262 13.949 18.1523 13.949 17.866C13.949 17.5796 13.7887 17.2058 13.2858 16.8705C12.6945 16.4763 11.8684 16.2572 11.0031 16.2572C10.1384 16.2572 9.30942 16.476 8.71271 16.871Z" fill="#F1F1F1"/>
</svg>
