<svg width="22" height="22" viewBox="0 0 22 22" fill="none" xmlns="http://www.w3.org/2000/svg">
<path fill-rule="evenodd" clip-rule="evenodd" d="M9.396 17.875C9.396 17.4953 9.7038 17.1875 10.0835 17.1875H19.2502C19.6299 17.1875 19.9377 17.4953 19.9377 17.875C19.9377 18.2547 19.6299 18.5625 19.2502 18.5625H10.0835C9.7038 18.5625 9.396 18.2547 9.396 17.875Z" fill="#F1F1F1"/>
<path fill-rule="evenodd" clip-rule="evenodd" d="M9.396 11.4584C9.396 11.0787 9.7038 10.7709 10.0835 10.7709H19.2502C19.6299 10.7709 19.9377 11.0787 19.9377 11.4584C19.9377 11.8381 19.6299 12.1459 19.2502 12.1459H10.0835C9.7038 12.1459 9.396 11.8381 9.396 11.4584Z" fill="#F1F1F1"/>
<path fill-rule="evenodd" clip-rule="evenodd" d="M9.396 5.04175C9.396 4.66205 9.7038 4.35425 10.0835 4.35425H19.2502C19.6299 4.35425 19.9377 4.66205 19.9377 5.04175C19.9377 5.42144 19.6299 5.72925 19.2502 5.72925H10.0835C9.7038 5.72925 9.396 5.42144 9.396 5.04175Z" fill="#F1F1F1"/>
<path fill-rule="evenodd" clip-rule="evenodd" d="M6.9028 2.72224C7.17129 2.99072 7.17129 3.42602 6.9028 3.69451L4.1528 6.44451C3.88432 6.713 3.44902 6.713 3.18053 6.44451L2.26386 5.52784C1.99538 5.25936 1.99538 4.82406 2.26386 4.55557C2.53235 4.28709 2.96765 4.28709 3.23614 4.55557L3.66667 4.9861L5.93053 2.72224C6.19902 2.45375 6.63432 2.45375 6.9028 2.72224Z" fill="#F1F1F1"/>
<path fill-rule="evenodd" clip-rule="evenodd" d="M6.9028 9.13886C7.17129 9.40735 7.17129 9.84265 6.9028 10.1111L4.1528 12.8611C3.88432 13.1296 3.44902 13.1296 3.18053 12.8611L2.26386 11.9445C1.99538 11.676 1.99538 11.2407 2.26386 10.9722C2.53235 10.7037 2.96765 10.7037 3.23614 10.9722L3.66667 11.4027L5.93053 9.13886C6.19902 8.87038 6.63432 8.87038 6.9028 9.13886Z" fill="#F1F1F1"/>
<path fill-rule="evenodd" clip-rule="evenodd" d="M6.9028 15.5556C7.17129 15.8241 7.17129 16.2594 6.9028 16.5279L4.1528 19.2779C3.88432 19.5464 3.44902 19.5464 3.18053 19.2779L2.26386 18.3612C1.99538 18.0927 1.99538 17.6574 2.26386 17.3889C2.53235 17.1205 2.96765 17.1205 3.23614 17.3889L3.66667 17.8195L5.93053 15.5556C6.19902 15.2871 6.63432 15.2871 6.9028 15.5556Z" fill="#F1F1F1"/>
</svg>
