<svg width="46" height="46" viewBox="0 0 46 46" fill="none" xmlns="http://www.w3.org/2000/svg">
<rect width="46" height="46" rx="23" fill="#F0C274"/>
<path fill-rule="evenodd" clip-rule="evenodd" d="M23.0003 14.5208C20.8487 14.5208 19.1045 16.2651 19.1045 18.4167C19.1045 20.5683 20.8487 22.3125 23.0003 22.3125C25.1519 22.3125 26.8962 20.5683 26.8962 18.4167C26.8962 16.2651 25.1519 14.5208 23.0003 14.5208ZM17.7295 18.4167C17.7295 15.5057 20.0893 13.1458 23.0003 13.1458C25.9113 13.1458 28.2712 15.5057 28.2712 18.4167C28.2712 21.3277 25.9113 23.6875 23.0003 23.6875C20.0893 23.6875 17.7295 21.3277 17.7295 18.4167Z" fill="white"/>
<path fill-rule="evenodd" clip-rule="evenodd" d="M14.4385 32.1667C14.4385 28.1142 18.4142 25.0625 23.0001 25.0625C27.5861 25.0625 31.5618 28.1142 31.5618 32.1667C31.5618 32.5464 31.254 32.8542 30.8743 32.8542C30.4946 32.8542 30.1868 32.5464 30.1868 32.1667C30.1868 29.1241 27.1042 26.4375 23.0001 26.4375C18.8961 26.4375 15.8135 29.1241 15.8135 32.1667C15.8135 32.5464 15.5057 32.8542 15.126 32.8542C14.7463 32.8542 14.4385 32.5464 14.4385 32.1667Z" fill="white"/>
</svg>
