<svg width="143" height="31" viewBox="0 0 143 31" fill="none" xmlns="http://www.w3.org/2000/svg">
<path d="M18.9072 0.025833C21.169 0 23.4135 0.0129165 25.658 0C25.7961 1.97623 26.7457 3.9912 28.6795 5.38618C30.6132 6.81991 33.3411 7.47866 36 7.69824V12.9036C33.5138 12.839 31.0103 12.4515 28.7485 11.6507C27.7644 11.3149 26.8493 10.8886 25.9515 10.4495C25.9342 14.2211 25.9688 17.9927 25.917 21.7514C25.7789 23.5597 24.9846 25.3551 23.5861 26.8405C21.3244 29.3205 17.4051 30.935 13.3823 30.9867C10.9133 31.09 8.44436 30.5863 6.33797 29.6563C2.85035 28.1192 0.398662 25.3034 0.0360877 22.281C0.00155681 21.6351 -0.0157086 20.9893 0.0188223 20.3564C0.3296 17.9023 1.95255 15.5515 4.47331 13.9498C7.33937 12.0898 11.3449 11.1986 15.0916 11.7282C15.1261 13.6398 15.0225 15.5515 15.0225 17.4631C13.3132 17.0498 11.3104 17.166 9.80833 17.941C8.7206 18.4706 7.89186 19.2843 7.46023 20.2014C7.09765 20.8602 7.20125 21.5835 7.21851 22.281C7.63288 24.3993 10.3608 26.1818 13.2614 25.988C15.1951 25.9751 17.0425 25.1355 18.0439 23.9084C18.372 23.4822 18.7346 23.043 18.7518 22.5393C18.9245 20.2272 18.8554 17.9281 18.8727 15.6161C18.8899 10.4107 18.8554 5.21827 18.9072 0.025833Z" fill="#E65F2B"/>
<path d="M51.05 26.175C49 26.175 47.3167 25.6917 46 24.725C44.6833 23.7417 43.975 22.3417 43.875 20.525H49.1C49.15 21.1417 49.3333 21.5917 49.65 21.875C49.9667 22.1583 50.375 22.3 50.875 22.3C51.325 22.3 51.6917 22.1917 51.975 21.975C52.275 21.7417 52.425 21.425 52.425 21.025C52.425 20.5083 52.1833 20.1083 51.7 19.825C51.2167 19.5417 50.4333 19.225 49.35 18.875C48.2 18.4917 47.2667 18.125 46.55 17.775C45.85 17.4083 45.2333 16.8833 44.7 16.2C44.1833 15.5 43.925 14.5917 43.925 13.475C43.925 12.3417 44.2083 11.375 44.775 10.575C45.3417 9.75833 46.125 9.14167 47.125 8.725C48.125 8.30833 49.2583 8.1 50.525 8.1C52.575 8.1 54.2083 8.58333 55.425 9.55C56.6583 10.5 57.3167 11.8417 57.4 13.575H52.075C52.0583 13.0417 51.8917 12.6417 51.575 12.375C51.275 12.1083 50.8833 11.975 50.4 11.975C50.0333 11.975 49.7333 12.0833 49.5 12.3C49.2667 12.5167 49.15 12.825 49.15 13.225C49.15 13.5583 49.275 13.85 49.525 14.1C49.7917 14.3333 50.1167 14.5417 50.5 14.725C50.8833 14.8917 51.45 15.1083 52.2 15.375C53.3167 15.7583 54.2333 16.1417 54.95 16.525C55.6833 16.8917 56.3083 17.4167 56.825 18.1C57.3583 18.7667 57.625 19.6167 57.625 20.65C57.625 21.7 57.3583 22.6417 56.825 23.475C56.3083 24.3083 55.55 24.9667 54.55 25.45C53.5667 25.9333 52.4 26.175 51.05 26.175ZM71.0529 23.125H64.8029L63.8529 26H58.7029L65.1279 8.375H70.7779L77.1779 26H72.0029L71.0529 23.125ZM69.8279 19.375L67.9279 13.675L66.0529 19.375H69.8279ZM83.675 8.375V26H78.775V8.375H83.675ZM93.4404 8.375C95.2904 8.375 96.9071 8.75 98.2904 9.5C99.6904 10.2333 100.765 11.2667 101.515 12.6C102.265 13.9333 102.64 15.4583 102.64 17.175C102.64 18.875 102.257 20.3917 101.49 21.725C100.74 23.0583 99.6654 24.1083 98.2654 24.875C96.8821 25.625 95.2738 26 93.4404 26H86.4654V8.375H93.4404ZM93.0654 21.675C94.4988 21.675 95.6238 21.2833 96.4404 20.5C97.2571 19.7167 97.6654 18.6083 97.6654 17.175C97.6654 15.725 97.2571 14.6083 96.4404 13.825C95.6238 13.025 94.4988 12.625 93.0654 12.625H91.3654V21.675H93.0654Z" fill="white"/>
</svg>
